# xmcd
#
# Track frame offsets:
#	150
#	20791
#	39130
#	60033
#	69847
#	89963
#	104565
#	122420
#	132573
#	150547
#	165845
#	189191
#	209536
#	231109
#	249912
#	279130
#	289826
#	305151
#
# Disc length: 4322 seconds
#
# Revision: 0
# Processed by: cddbd v1.5.1PL2 Copyright (c) Steve Scherf et al.
# Submitted via: audiograbber 1.83.01
#
DISCID=ef10e012
DTITLE=Moby - 18
DYEAR=2002
DGENRE=Electronic
TTITLE0=We are all made of stars
TTITLE1=In this world
TTITLE2=In my heart
TTITLE3=Great escape
TTITLE4=Signs of love
TTITLE5=One of these mornings
TTITLE6=Another woman
TTITLE7=Fireworks
TTITLE8=Extreme ways
TTITLE9=Jam for the ladies
TTITLE10=Sunday (The Day Before My Birthday)
TTITLE11=18
TTITLE12=Sleep alone
TTITLE13=At least we tried
TTITLE14=Harbour
TTITLE15=Look back in
TTITLE16=The rafters
TTITLE17=I'm not worried at all
EXTD=
EXTT0=
EXTT1=
EXTT2=
EXTT3=
EXTT4=
EXTT5=
EXTT6=
EXTT7=
EXTT8=
EXTT9=
EXTT10=
EXTT11=
EXTT12=
EXTT13=
EXTT14=
EXTT15=
EXTT16=
EXTT17=
PLAYORDER=
